<?xml version="1.0" standalone="no"?>
<!DOCTYPE svg PUBLIC "-//W3C//DTD SVG 20010904//EN"
 "http://www.w3.org/TR/2001/REC-SVG-20010904/DTD/svg10.dtd">
<svg version="1.0" xmlns="http://www.w3.org/2000/svg"
 width="500.000000pt" height="500.000000pt" viewBox="0 0 500.000000 500.000000"
 preserveAspectRatio="xMidYMid meet">
<metadata>
Created by potrace 1.14, written by Peter Selinger 2001-2017
</metadata>
<g transform="translate(0.000000,500.000000) scale(0.100000,-0.100000)"
fill="#000000" stroke="none">
<path d="M2426 4323 c-1 -1 -38 -5 -81 -8 -44 -4 -98 -9 -120 -11 -22 -3 -48
-5 -57 -5 -10 0 -18 -3 -18 -7 0 -4 -8 -8 -17 -8 -29 -1 -88 -13 -114 -22 -13
-5 -30 -7 -36 -5 -7 3 -13 0 -13 -7 0 -6 -4 -8 -10 -5 -5 3 -10 1 -10 -5 0 -6
-4 -9 -9 -6 -10 6 -120 -31 -140 -47 -8 -7 -17 -11 -20 -11 -21 5 -172 -72
-265 -135 -38 -25 -80 -52 -93 -59 -13 -7 -23 -18 -23 -24 0 -6 -3 -8 -6 -5
-4 4 -15 -3 -25 -15 -11 -11 -19 -18 -19 -14 0 15 -161 -142 -235 -230 -28
-32 -64 -79 -80 -104 -17 -24 -36 -51 -43 -60 -7 -8 -12 -19 -12 -23 1 -4 -5
-14 -12 -22 -28 -31 -35 -44 -85 -145 -51 -104 -69 -148 -65 -162 1 -5 -2 -8
-7 -8 -8 0 -25 -56 -22 -72 0 -5 -3 -8 -9 -8 -6 0 -9 -3 -8 -7 1 -5 -8 -44
-19 -88 -24 -85 -31 -119 -39 -175 -8 -52 -12 -75 -14 -75 -13 0 -19 -380 -7
-445 9 -50 16 -96 21 -127 2 -16 7 -35 10 -43 3 -8 8 -33 11 -54 3 -22 10 -45
15 -51 5 -7 8 -14 5 -17 -2 -2 4 -28 15 -56 11 -29 20 -54 20 -57 1 -2 8 -22
17 -42 9 -21 18 -44 19 -52 2 -8 8 -17 14 -21 7 -4 11 -11 11 -16 -2 -12 60
-135 76 -152 6 -6 15 -21 18 -32 3 -11 11 -20 16 -20 5 0 9 -7 9 -15 0 -8 5
-15 10 -15 6 0 10 -4 10 -10 0 -9 19 -36 48 -66 7 -8 11 -14 7 -14 -3 0 3 -10
15 -23 11 -12 37 -41 57 -64 21 -22 50 -54 64 -70 42 -47 123 -113 234 -194
39 -27 77 -56 87 -64 9 -7 18 -11 21 -9 2 2 10 -2 17 -11 7 -8 19 -15 26 -15
8 0 14 -4 14 -8 0 -5 16 -14 35 -22 19 -8 35 -18 35 -22 0 -5 4 -7 9 -4 5 3
14 -1 21 -9 7 -8 16 -12 21 -9 5 3 9 0 9 -6 0 -6 5 -8 10 -5 6 3 10 1 10 -5 0
-6 5 -8 10 -5 6 3 10 2 10 -4 0 -5 14 -12 30 -16 16 -4 30 -11 30 -17 0 -6 3
-9 6 -5 4 3 25 -3 48 -15 22 -11 42 -20 44 -19 4 2 20 -3 55 -17 16 -7 37 -12
48 -12 10 0 19 -4 19 -8 0 -4 8 -9 18 -10 22 -2 43 -7 62 -15 8 -3 31 -9 50
-12 19 -3 52 -9 72 -14 20 -5 39 -6 42 -4 2 3 11 1 18 -3 7 -5 22 -9 33 -10
11 -1 56 -5 100 -9 114 -10 218 -10 310 -1 95 9 120 13 120 16 0 1 16 4 35 6
37 4 73 11 78 14 1 2 11 4 22 5 11 1 21 3 23 5 1 1 9 3 17 5 8 2 40 11 70 20
30 9 62 18 70 20 8 2 17 4 20 5 3 1 8 2 13 1 4 0 7 3 7 8 0 9 57 27 73 23 4
-1 7 3 7 9 0 5 5 7 10 4 6 -3 10 -1 10 4 0 6 5 11 11 11 16 0 80 31 108 52 13
10 27 15 32 12 5 -3 9 -2 9 3 0 4 13 14 28 21 16 6 38 21 49 31 12 11 24 17
27 14 3 -4 6 -1 6 6 0 7 4 10 9 7 5 -4 11 -3 13 1 1 5 37 33 78 64 41 31 111
93 155 137 94 94 105 107 105 123 0 7 3 9 7 6 3 -4 20 12 37 36 17 23 33 44
36 47 10 8 115 171 133 206 9 17 13 34 10 38 -4 3 -2 6 4 6 6 0 20 24 32 53
12 28 27 61 32 72 6 12 11 27 12 35 2 8 6 21 10 28 5 6 5 12 0 12 -4 0 -3 4 2
8 10 7 35 89 39 122 0 8 3 17 6 20 3 3 10 24 16 48 8 31 8 42 0 42 -7 0 -7 3
-1 8 11 8 14 19 21 72 22 175 17 419 -12 575 -2 11 -6 39 -10 63 -4 23 -10 42
-14 42 -4 0 -7 14 -8 31 0 17 -6 37 -13 45 -6 8 -9 14 -5 14 11 0 -47 145
-108 270 -61 126 -93 182 -120 210 -8 8 -20 27 -27 43 -7 15 -17 27 -22 27 -6
0 -8 3 -5 6 4 3 -1 13 -10 23 -9 10 -29 33 -44 52 -79 101 -168 194 -248 259
-23 19 -49 41 -56 48 -8 7 -14 11 -14 8 0 -5 -36 23 -66 52 -7 6 -15 12 -19
12 -3 0 -38 21 -78 48 -40 26 -78 48 -86 50 -7 1 -20 9 -28 17 -8 8 -20 15
-27 15 -6 0 -18 6 -24 13 -7 6 -16 12 -20 12 -4 0 -32 12 -62 27 -50 24 -107
49 -120 53 -3 1 -12 5 -20 8 -34 15 -137 49 -160 53 -14 2 -36 7 -50 11 -14 3
-32 7 -40 9 -29 6 -85 16 -110 21 -40 7 -279 21 -284 16z m89 -665 c28 -7 53
-13 58 -14 4 -1 9 -3 12 -4 3 -1 10 -4 15 -5 6 -1 11 -3 13 -5 1 -1 11 -3 22
-5 29 -5 46 -10 78 -23 16 -7 34 -12 41 -12 6 0 16 -4 22 -9 5 -5 18 -11 29
-13 11 -1 72 -29 135 -62 164 -83 170 -86 170 -97 0 -5 6 -9 13 -9 21 0 177
-128 278 -229 102 -103 149 -161 248 -310 l63 -94 -6 -101 c-5 -95 -10 -130
-23 -166 -3 -8 -7 -31 -8 -50 -1 -19 -3 -35 -5 -35 -1 0 -3 -8 -6 -18 -2 -9
-6 -25 -8 -35 -3 -9 -5 -18 -6 -19 -3 -4 -6 -14 -15 -51 -4 -18 -12 -35 -16
-38 -5 -3 -9 -11 -9 -18 0 -8 -8 -31 -17 -52 -9 -22 -17 -41 -18 -44 -1 -3 -7
-18 -13 -33 -7 -16 -12 -33 -12 -38 0 -5 -4 -9 -8 -9 -5 0 -15 -18 -22 -40 -7
-22 -16 -40 -19 -40 -3 0 -13 -15 -20 -32 -8 -18 -21 -39 -28 -46 -7 -7 -13
-20 -13 -28 0 -8 -4 -14 -8 -14 -5 0 -23 -23 -41 -50 -18 -28 -37 -50 -42 -50
-6 0 -8 -4 -4 -9 3 -6 -4 -15 -16 -21 -11 -7 -19 -14 -16 -16 7 -8 -165 -184
-175 -178 -4 3 -8 -2 -8 -11 0 -8 -8 -19 -17 -22 -10 -4 -26 -15 -35 -26 -10
-11 -18 -17 -18 -14 0 3 -11 -4 -24 -16 -13 -12 -40 -33 -60 -47 -21 -14 -44
-31 -52 -38 -8 -7 -14 -11 -14 -7 0 3 -27 -13 -60 -35 -33 -22 -60 -38 -60
-35 0 4 -13 -3 -29 -14 -16 -12 -34 -21 -40 -21 -6 0 -11 -4 -11 -8 0 -15 -82
-17 -119 -4 -36 13 -102 31 -126 34 -11 2 -22 6 -25 10 -3 4 -17 8 -30 10 -14
2 -47 14 -74 26 -28 13 -60 25 -73 28 -13 4 -26 10 -29 15 -3 5 -12 9 -20 9
-9 0 -22 7 -30 15 -9 8 -27 18 -42 22 -15 3 -29 9 -32 13 -3 3 -40 25 -82 48
-42 23 -89 53 -104 67 -15 14 -29 23 -32 21 -2 -3 -17 9 -33 25 -15 16 -32 29
-36 29 -5 0 -15 9 -23 20 -8 11 -17 20 -21 20 -4 0 -32 25 -62 55 -30 30 -53
55 -52 55 2 0 -15 20 -38 44 -23 25 -53 59 -67 77 -14 18 -31 38 -37 45 -7 7
-13 17 -13 23 0 6 -4 11 -10 11 -5 0 -10 7 -10 15 0 8 -4 15 -10 15 -5 0 -10
7 -10 15 0 8 -3 15 -7 15 -5 0 -13 10 -19 23 -5 12 -25 48 -42 80 -18 31 -30
57 -26 57 4 0 0 8 -8 18 -18 20 -91 205 -96 242 -2 13 -6 27 -10 30 -17 13
-23 118 -8 145 5 11 9 23 8 28 -1 4 3 7 9 7 5 0 8 4 5 8 -3 5 12 43 33 85 21
43 36 77 32 77 -3 0 -1 4 4 8 6 4 19 23 29 42 41 74 155 239 197 284 97 105
138 144 143 139 3 -4 6 1 6 10 0 9 3 17 8 17 4 0 25 16 46 35 22 19 41 33 44
31 2 -3 18 9 35 26 18 16 52 42 77 56 25 14 47 29 50 32 13 14 88 49 94 43 3
-3 6 -2 6 4 0 9 37 28 70 37 3 1 16 8 30 16 24 14 83 38 105 43 6 1 13 6 16
10 3 4 19 10 35 13 16 3 30 7 32 9 6 5 94 -5 147 -17z"/>
<path d="M2033 2845 c-7 -7 -9 -16 -6 -19 4 -3 1 -6 -6 -6 -7 0 -10 -4 -6 -9
3 -5 1 -12 -5 -16 -6 -4 -8 -10 -5 -15 3 -5 -2 -16 -11 -24 -8 -9 -13 -16 -9
-16 3 0 0 -10 -7 -22 -7 -13 -11 -26 -10 -30 1 -5 -3 -8 -10 -8 -6 0 -9 -3 -6
-6 4 -3 0 -17 -7 -31 -8 -15 -12 -30 -9 -35 3 -4 1 -8 -4 -8 -6 0 -12 -7 -16
-15 -3 -9 0 -15 10 -15 8 0 13 4 10 9 -4 5 -2 11 3 13 5 1 11 12 13 23 1 11 8
23 13 27 6 4 10 11 10 15 1 4 6 18 13 29 6 12 8 24 5 28 -3 3 -1 6 6 6 7 0 10
4 6 9 -3 5 -1 12 5 16 6 4 8 10 5 15 -3 5 -1 11 5 15 5 3 10 13 10 21 0 8 9
23 20 34 11 11 20 16 20 11 0 -5 16 -8 35 -7 19 2 36 -1 36 -5 1 -5 2 -15 3
-21 1 -7 -5 -21 -13 -32 -9 -10 -15 -20 -13 -22 6 -10 1 -24 -13 -37 -13 -13
-13 -16 1 -21 16 -6 25 10 28 49 0 14 7 27 14 30 6 2 12 11 12 19 0 18 29 29
35 13 3 -6 3 -21 1 -32 -2 -11 0 -32 5 -47 5 -18 3 -29 -4 -32 -8 -3 -7 -5 2
-5 11 -1 11 -4 1 -16 -7 -8 -8 -15 -3 -15 12 0 11 -123 -1 -132 -6 -4 -6 -12
1 -20 5 -7 9 -45 8 -85 -2 -50 1 -73 10 -77 9 -3 12 6 12 30 -1 19 -5 34 -10
34 -4 0 -5 9 -2 20 9 27 10 214 1 228 -3 6 -3 13 2 16 12 7 5 88 -8 96 -8 5
-7 9 3 13 9 3 13 16 12 32 -2 18 1 25 9 22 7 -3 13 0 13 7 0 17 -40 15 -55 -3
-11 -14 -12 -14 -7 0 5 12 -1 14 -27 12 -41 -5 -46 -5 -83 0 -17 2 -36 -1 -42
-8z"/>
<path d="M2272 2852 c-6 -2 -12 -8 -12 -14 0 -6 6 -6 15 2 12 10 15 10 15 -1
0 -11 2 -11 10 1 5 8 10 10 10 4 0 -6 11 -11 25 -11 17 0 25 5 24 16 0 10 -2
12 -6 3 -2 -6 -10 -9 -16 -5 -14 9 -47 11 -65 5z"/>
<path d="M2370 2848 c0 -15 23 -20 31 -7 5 8 9 9 9 3 0 -14 30 -14 30 0 0 6 4
5 9 -3 5 -8 16 -11 25 -8 15 6 20 -3 17 -30 -1 -7 3 -13 9 -13 17 0 11 -16
-15 -42 -24 -25 -25 -26 -5 -31 11 -3 20 -1 20 5 0 5 4 7 9 4 5 -3 12 1 15 10
4 10 2 13 -6 8 -7 -5 -8 -3 -2 7 15 24 16 99 2 101 -41 4 -148 2 -148 -4z"/>
<path d="M3254 2731 c-12 -21 -6 -113 7 -106 5 4 9 1 9 -5 0 -6 4 -9 9 -5 5 3
12 1 15 -4 5 -8 13 -8 46 -2 3 1 -10 9 -27 17 -36 18 -46 60 -18 71 14 5 103
-28 166 -62 14 -8 29 -11 33 -8 4 4 10 3 14 -2 14 -20 51 -35 58 -24 8 13 7
14 -40 33 -21 9 -43 13 -49 9 -6 -3 -7 -1 -3 5 7 12 -11 17 -43 13 -8 -2 -10
2 -5 10 4 7 3 10 -4 5 -6 -3 -14 -1 -17 5 -4 5 -13 8 -21 5 -8 -3 -14 -1 -14
4 0 5 -16 12 -35 16 -19 3 -33 10 -30 14 2 4 -6 12 -19 18 -18 8 -24 7 -32 -7z"/>
<path d="M1728 2732 c-10 -2 -18 -8 -18 -13 0 -5 -4 -8 -8 -6 -13 4 -181 -67
-176 -74 2 -4 -6 -5 -18 -1 -16 4 -19 2 -13 -8 5 -9 4 -11 -4 -6 -6 4 -23 0
-36 -8 -14 -9 -25 -14 -25 -11 0 3 -6 0 -14 -7 -7 -7 -12 -24 -11 -38 2 -14
-2 -28 -8 -32 -6 -4 -8 -10 -4 -14 12 -12 27 10 30 43 1 17 4 31 7 31 15 -2
71 16 76 23 3 5 13 9 23 9 10 0 24 7 31 15 7 8 16 12 21 9 5 -3 9 0 9 5 0 6 3
10 8 10 4 -1 10 0 15 1 4 1 12 4 17 5 6 1 12 4 15 5 3 1 11 3 18 4 6 1 11 7
10 14 -3 14 3 14 32 3 14 -6 20 -17 20 -39 0 -17 -1 -29 -3 -27 -2 2 -15 -3
-29 -10 -15 -8 -30 -12 -35 -9 -4 3 -8 -2 -8 -10 0 -16 20 -18 30 -4 3 4 16 9
28 11 33 5 40 17 45 68 5 53 -1 66 -25 61z"/>
<path d="M2359 2733 c-1 -5 -1 -11 0 -15 0 -5 -3 -8 -7 -8 -5 0 -7 -13 -4 -30
2 -17 10 -30 18 -30 17 0 17 5 3 31 -8 17 -7 23 7 34 10 7 25 10 34 7 8 -3 12
-2 9 2 -10 10 -59 18 -60 9z"/>
<path d="M3020 2720 c0 -4 -12 -6 -27 -5 -16 1 -40 -7 -55 -17 -14 -10 -32
-18 -40 -18 -10 0 -10 -2 1 -9 10 -6 18 -5 25 4 13 16 97 33 141 28 52 -6 55
-6 56 -12 0 -3 3 -18 5 -32 3 -20 0 -28 -16 -32 -11 -3 -20 -2 -20 1 0 4 -11
7 -25 7 -14 0 -25 -3 -25 -7 0 -5 -5 -7 -11 -5 -6 1 -12 -8 -14 -20 -1 -13 2
-23 7 -23 17 0 99 -41 116 -58 20 -20 22 -90 3 -102 -7 -4 -12 -10 -12 -14 1
-3 -1 -5 -3 -3 -2 1 -13 -6 -23 -16 -11 -9 -23 -14 -26 -10 -4 3 -7 -1 -7 -10
0 -21 3 -21 41 -1 33 17 59 66 59 111 0 39 -35 93 -60 93 -11 0 -20 5 -20 10
0 6 -7 10 -17 10 -22 0 -11 10 17 15 13 3 29 0 36 -5 8 -7 13 -7 16 2 8 24 9
108 1 109 -4 1 -17 3 -28 5 -43 8 -95 10 -95 4z"/>
<path d="M2780 2710 c0 -4 -26 -6 -57 -4 -42 2 -52 0 -35 -6 15 -6 22 -18 22
-35 0 -30 29 -35 37 -5 3 11 9 17 14 14 5 -3 12 2 15 10 8 20 23 20 46 0 16
-16 18 -15 24 0 4 9 4 19 1 22 -8 8 -67 11 -67 4z"/>
<path d="M2569 2688 c-5 -88 -3 -265 4 -261 4 2 7 -1 7 -6 0 -6 -4 -11 -8 -11
-5 0 -8 -10 -6 -22 1 -13 3 -26 3 -30 1 -11 41 -10 41 1 0 5 -6 11 -12 13 -17
6 -15 286 2 317 9 18 8 21 -10 21 -14 0 -20 -7 -21 -22z"/>
<path d="M2082 2683 c3 -15 -14 -63 -23 -63 -5 0 -6 -7 -3 -15 4 -8 1 -15 -7
-15 -7 0 -9 -3 -6 -7 4 -3 2 -12 -4 -20 -9 -10 -8 -13 4 -13 15 0 40 54 30 64
-4 3 -1 6 6 6 7 0 11 6 8 14 -3 8 1 17 9 20 19 7 18 36 -1 36 -8 0 -14 -3 -13
-7z"/>
<path d="M2390 2658 c0 -3 15 -5 33 -4 54 5 75 -10 71 -52 -1 -20 -8 -38 -13
-40 -6 -2 -9 -7 -7 -11 2 -3 -24 -5 -59 -3 -52 3 -64 0 -69 -14 -8 -22 -1 -28
21 -19 10 5 22 7 27 6 4 -1 14 4 22 10 8 6 14 7 14 2 0 -7 43 -9 60 -3 3 1 8
2 11 2 3 -1 6 30 6 67 l0 67 -59 0 c-32 -1 -58 -4 -58 -8z"/>
<path d="M2875 2650 c-8 -13 -1 -24 14 -19 6 3 7 10 2 18 -6 10 -10 10 -16 1z"/>
<path d="M2830 2639 c0 -5 5 -7 10 -4 6 3 10 8 10 11 0 2 -4 4 -10 4 -5 0 -10
-5 -10 -11z"/>
<path d="M2833 2623 c-7 -2 -13 -10 -13 -16 0 -7 -17 -13 -41 -13 -25 -1 -45
-8 -53 -19 -14 -19 -20 -229 -6 -220 4 2 7 15 6 27 -1 13 3 26 9 30 6 5 5 8
-4 8 -11 0 -11 3 -1 15 9 11 9 15 1 15 -7 0 -9 5 -5 12 4 6 9 25 10 42 5 51 7
55 23 62 31 14 54 14 69 2 12 -10 14 -10 8 0 -4 7 -2 12 6 12 7 0 14 11 14 25
2 25 -1 27 -23 18z"/>
<path d="M2867 2613 c-10 -9 -9 -25 2 -19 4 3 6 -5 4 -19 -4 -15 3 -32 17 -47
l23 -23 -7 30 c-4 17 -10 42 -13 58 -5 27 -13 33 -26 20z"/>
<path d="M3345 2600 c-2 -3 5 -7 16 -7 10 -1 19 2 19 6 0 9 -29 10 -35 1z"/>
<path d="M3575 2600 c-4 -6 -1 -17 5 -25 10 -12 9 -20 -4 -41 -16 -23 -94 -66
-123 -67 -7 0 -13 -4 -13 -8 0 -6 -29 -19 -53 -23 -4 0 -12 -8 -17 -16 -8 -12
-10 -12 -10 -1 0 10 -3 11 -14 2 -8 -7 -25 -14 -39 -16 -20 -4 -26 0 -29 20
-3 14 -1 25 5 25 5 0 3 8 -4 17 -8 9 -9 14 -2 10 6 -4 24 -2 40 5 15 6 31 12
35 12 3 1 10 4 13 8 4 4 -5 5 -21 1 -16 -3 -35 -6 -41 -6 -7 0 -13 -4 -13 -9
0 -5 -4 -7 -8 -4 -17 10 -30 -11 -32 -54 -4 -68 -3 -72 19 -61 10 6 21 8 24 4
4 -3 13 0 22 7 8 7 15 9 15 4 0 -5 5 -2 10 6 5 8 15 15 22 15 27 2 68 18 68
27 0 5 5 6 10 3 6 -3 10 -2 10 2 0 5 9 9 21 10 11 1 38 11 59 22 21 11 41 17
44 14 3 -4 6 -1 6 6 0 7 4 9 10 6 5 -3 11 4 14 17 7 40 5 68 -5 68 -6 0 -8 4
-4 9 3 5 1 12 -4 15 -5 4 -13 2 -16 -4z"/>
<path d="M1610 2588 c0 -5 -4 -7 -9 -4 -5 4 -11 2 -13 -4 -2 -6 -17 -11 -35
-13 -17 -1 -29 -4 -27 -6 2 -2 -1 -10 -8 -18 -6 -7 -8 -16 -4 -20 3 -3 6 -1 6
6 0 8 5 9 19 1 12 -6 22 -6 26 -1 3 5 -3 12 -12 14 -14 4 -13 5 4 6 12 0 25 6
28 12 4 6 14 8 22 5 9 -4 11 -2 7 6 -5 8 -2 9 9 5 11 -4 17 -1 17 7 0 7 -7 13
-15 13 -8 0 -15 -4 -15 -9z"/>
<path d="M3390 2583 c0 -9 6 -13 14 -10 7 3 18 1 24 -5 6 -6 12 -6 17 3 5 8 4
10 -3 5 -7 -4 -12 -3 -12 2 0 5 -9 12 -20 15 -13 3 -20 0 -20 -10z"/>
<path d="M3480 2556 c-6 -8 -19 -12 -28 -9 -14 5 -15 3 -5 -7 10 -10 15 -11
27 -1 11 9 15 9 19 -1 3 -7 4 -3 4 10 -1 26 -1 26 -17 8z"/>
<path d="M1903 2548 c0 -7 -14 -41 -31 -75 -23 -46 -27 -63 -17 -67 7 -2 16 5
20 17 10 31 12 36 15 42 1 3 4 10 5 15 1 6 4 13 5 18 1 4 2 10 1 15 0 4 4 7
11 7 6 0 8 3 5 7 -4 3 -2 12 4 20 9 10 8 13 -3 13 -8 0 -15 -6 -15 -12z"/>
<path d="M2029 2533 c-1 -5 -1 -11 0 -15 0 -5 -3 -8 -9 -8 -5 0 -10 -6 -10
-14 0 -8 -9 -31 -21 -50 -12 -20 -17 -36 -12 -36 4 0 2 -4 -5 -8 -7 -5 -14
-18 -16 -29 -7 -35 -36 -84 -46 -78 -6 4 -10 2 -10 -2 0 -5 -15 -7 -34 -5 -28
3 -34 8 -34 26 1 11 6 27 11 34 6 7 7 16 3 19 -4 4 -11 1 -15 -6 -7 -11 -10
-11 -15 0 -3 8 -3 4 0 -8 3 -14 1 -23 -7 -23 -8 0 -9 -4 0 -13 7 -10 7 -17 0
-24 -17 -17 -3 -30 31 -31 18 0 28 3 24 10 -4 6 2 5 15 -2 26 -13 61 -4 61 16
0 8 6 14 13 14 9 0 8 3 -2 9 -11 7 -10 10 4 18 9 6 18 21 18 35 1 15 5 24 10
21 4 -2 8 1 8 6 2 16 4 23 19 56 7 17 14 32 15 35 4 11 18 45 22 53 2 4 -1 7
-6 7 -6 0 -12 -3 -12 -7z"/>
<path d="M1575 2520 c-4 -6 -3 -10 2 -9 4 1 22 -3 38 -10 17 -7 40 -13 53 -13
12 0 22 -4 22 -9 0 -5 7 -9 16 -9 8 0 12 -4 9 -10 -3 -5 -2 -10 3 -10 8 0 9
-21 3 -52 0 -4 -12 -5 -25 -2 -30 5 -44 -12 -16 -19 11 -3 24 -6 28 -7 4 -1
15 -6 25 -11 15 -9 17 -4 17 50 0 57 -1 59 -35 75 -19 10 -40 14 -45 11 -6 -3
-10 -1 -10 5 0 7 -6 10 -14 7 -7 -3 -19 0 -25 6 -6 6 -11 7 -11 3 0 -5 -6 -3
-14 3 -10 8 -16 9 -21 1z"/>
<path d="M3410 2520 c0 -5 4 -10 9 -10 6 0 13 5 16 10 3 6 -1 10 -9 10 -9 0
-16 -4 -16 -10z"/>
<path d="M1406 2501 c-3 -5 14 -15 38 -22 25 -7 42 -17 40 -21 -8 -13 11 -9
25 5 11 10 13 9 7 -1 -7 -12 58 -47 101 -54 10 -2 21 -7 24 -11 3 -4 12 -1 19
8 7 9 9 15 4 14 -20 -4 -74 14 -74 25 0 6 -4 6 -9 -2 -6 -11 -10 -10 -15 3 -4
10 -12 15 -22 11 -8 -3 -13 -2 -10 3 6 10 -42 33 -54 26 -5 -3 -10 -1 -12 3
-5 13 -56 23 -62 13z"/>
<path d="M2940 2499 c0 -5 4 -8 9 -5 5 3 12 -1 15 -10 3 -8 10 -13 15 -10 5 3
12 -5 15 -19 6 -24 24 -29 37 -11 8 11 -1 46 -12 47 -13 2 -29 6 -31 8 -11 9
-48 9 -48 0z"/>
<path d="M2350 2491 c0 -6 0 -14 -1 -18 0 -5 14 -11 30 -14 17 -4 31 -4 31 0
0 3 20 6 45 7 25 0 45 -3 45 -9 0 -5 7 -4 15 3 8 7 12 17 9 22 -4 6 -10 5 -15
-3 -7 -11 -9 -11 -9 -1 0 9 -5 10 -19 3 -10 -6 -21 -8 -24 -5 -3 4 -21 7 -39
9 -18 1 -41 6 -50 10 -11 4 -18 3 -18 -4z"/>
<path d="M2872 2464 c-7 -8 -9 -14 -5 -14 5 0 7 -18 5 -41 -3 -22 1 -46 7 -52
8 -8 11 -7 11 4 0 12 2 12 10 -1 5 -8 12 -11 16 -7 4 3 2 12 -4 20 -15 18 -23
65 -11 72 5 4 9 11 9 16 0 6 -4 8 -9 5 -5 -4 -11 -2 -13 3 -1 5 -9 3 -16 -5z"/>
<path d="M2520 2441 c-12 -24 -13 -31 -1 -31 5 0 11 11 13 25 6 30 2 32 -12 6z"/>
<path d="M2970 2440 c0 -5 5 -10 10 -10 6 0 10 5 10 10 0 6 -4 10 -10 10 -5 0
-10 -4 -10 -10z"/>
<path d="M2509 2388 c-1 -7 -1 -15 -1 -18 0 -3 -17 -4 -39 -3 -21 1 -39 -2
-39 -7 0 -5 23 -9 50 -8 36 0 50 4 50 14 0 8 0 17 1 21 0 4 -4 9 -10 11 -6 2
-12 -2 -12 -10z"/>
<path d="M2236 2358 c4 -6 17 -8 30 -5 14 2 27 0 30 -5 3 -5 12 -4 20 3 8 6
14 7 14 3 0 -5 20 -8 45 -6 63 5 56 20 -10 20 -30 0 -55 -5 -55 -10 0 -7 -4
-7 -12 0 -16 13 -70 13 -62 0z"/>
<path d="M2627 2359 c7 -7 15 -10 18 -7 3 3 -2 9 -12 12 -14 6 -15 5 -6 -5z"/>
<path d="M3007 2355 c5 -14 53 -14 53 0 0 6 -13 11 -29 10 -16 0 -27 -5 -24
-10z"/>
<path d="M2936 2351 c3 -3 18 -6 34 -6 16 0 27 2 24 5 -3 3 -19 5 -35 6 -16 0
-26 -2 -23 -5z"/>
</g>
</svg>
